<?xml version="1.0" encoding="UTF-8"?>
<svg id="Layer_1" data-name="Layer 1" xmlns="http://www.w3.org/2000/svg" viewBox="0 0 130.65 117.06">
  <defs>
    <style>
      .cls-1, .cls-2 {
        fill: #2f8bcd;
      }

      .cls-2 {
        font-family: Avenir-Light, Avenir;
        font-size: 19.38px;
        font-weight: 300;
      }
    </style>
  </defs>
  <g id="Layer_1-2" data-name="Layer 1">
    <path class="cls-1" d="M127.63,56.35c-2.17-.59-4.42.7-5.02,2.87-.21.77-5.45,18.97-24.64,18.97-20.31,0-27.15-17.56-27.15-25.58,0-25.4,17.6-29.19,28.09-29.19,18.29,0,23.5,17.27,23.71,18.02.62,2.17,2.87,3.43,5.04,2.82,2.18-.61,3.44-2.87,2.83-5.04-2.33-8.29-11.92-23.98-31.58-23.98-13.23,0-23.12,4.5-29.41,13.37-1.44,2.04-2.59,4.18-3.49,6.33-5.85-12.26-17.49-16.48-23.4-17.86-1.93-.45-3.95-.7-5.99-.73l-28.09-.43-.32-11.95C8.14,1.72,6.25-.07,4.01,0,1.75.06-.03,1.94.03,4.2l.39,14.34c.08,3.06,2.54,5.49,5.6,5.54l30.48.46c1.46.02,2.89.2,4.25.51,7.68,1.79,20.57,7.68,20.61,26.91.03,11.05-4.59,18.96-13.71,23.52-7.57,3.78-16.81,3.83-24.72.13-10.16-4.76-15.12-13.42-14.73-25.74.07-2.26-1.7-4.15-3.96-4.22-2.27-.06-4.15,1.7-4.22,3.96-.63,19.8,10.22,29.1,19.43,33.41,5,2.34,10.42,3.51,15.8,3.51s11.08-1.24,16.05-3.73c5.48-2.74,11.66-7.46,15.23-15.47,4.83,9.59,14.55,19.05,31.43,19.05,20.44,0,30.22-16.37,32.54-25.02.58-2.18-.71-4.41-2.88-5Z"/>
    <text class="cls-2" transform="translate(4.64 112.21)"><tspan x="0" y="0">BLUE CANOE</tspan></text>
  </g>
</svg>